<svg width="1512" height="5756" viewBox="0 0 1512 5756" fill="none" xmlns="http://www.w3.org/2000/svg">
<g filter="url(#filter0_f_95_372)">
<path d="M1389.06 1721.06L1923.24 1552.6L2269.56 1760.31L1983.91 1753.02L1790.46 2132.24L1406.13 2181.81L1389.06 1721.06Z" fill="#0339A5" fill-opacity="0.3"/>
<path d="M918.858 3062.81L1011.62 3516.21L1255.49 3578.4L1596.76 3302.33C1612.84 3137.46 1638.3 2820.43 1611.56 2871.34C1584.83 2922.25 1359.25 2958.21 1249.8 2969.82L1487.61 2712.17C1390.77 2691.71 1188.57 2653.16 1154.47 2662.69C1120.37 2672.21 983.186 2933.4 918.858 3062.81Z" fill="#0339A5" fill-opacity="0.3"/>
<path d="M-174.414 4956.55L-522.652 5108.03L-159.812 5386.85L485.372 5239.73L75.3011 5138.31L-174.414 4956.55Z" fill="#0339A5" fill-opacity="0.3"/>
<path d="M11.3735 4169.42L-321.4 4199.82L-467.31 3580.55L27.8788 3469.9L314.056 3667.65L112.023 3828.99L11.3735 4169.42Z" fill="#0339A5" fill-opacity="0.3"/>
</g>
<g filter="url(#filter1_f_95_372)">
<path d="M734.5 969L1240 930.5L1388.5 1227.5L1137.5 1439.5L734.5 1478L579 1227.5L734.5 969Z" fill="#4B6CB7" fill-opacity="0.2"/>
<path d="M381 1602L137 1439.5C104 1527.83 33.7999 1710.9 16.9999 1736.5C-4.00009 1768.5 137 2068.5 137 2125C137 2181.5 413 2178 462.5 2157C502.1 2140.2 424.667 1780 381 1602Z" fill="#4B6CB7" fill-opacity="0.2"/>
<path d="M137 3539L-92.5 3677L-259 4019.5L56 4147L239.5 4058.5L663.5 4193L907.5 3871C800.333 3827.5 580.3 3740.5 557.5 3740.5C534.7 3740.5 267.667 3606.17 137 3539Z" fill="#4B6CB7" fill-opacity="0.2"/>
<path d="M171.5 875.5L-87.5 969L16.9999 688L-137 275H237.5L137 589L171.5 875.5Z" fill="#4B6CB7" fill-opacity="0.2"/>
<path d="M734.5 4952L462.5 5365.5L1025.5 5145L1438.5 5365.5C1576.17 5214.83 1848.2 4900.3 1835 4847.5C1821.8 4794.7 1734.17 4564.83 1692 4456.5L1405.5 4423.5L1025.5 4495L1091.5 4913.5L734.5 4952Z" fill="#4B6CB7" fill-opacity="0.2"/>
</g>
<defs>
<filter id="filter0_f_95_372" x="-822.652" y="1252.6" width="3392.21" height="4434.25" filterUnits="userSpaceOnUse" color-interpolation-filters="sRGB">
<feFlood flood-opacity="0" result="BackgroundImageFix"/>
<feBlend mode="normal" in="SourceGraphic" in2="BackgroundImageFix" result="shape"/>
<feGaussianBlur stdDeviation="150" result="effect1_foregroundBlur_95_372"/>
</filter>
<filter id="filter1_f_95_372" x="-533.9" y="0.100006" width="2644.26" height="5640.3" filterUnits="userSpaceOnUse" color-interpolation-filters="sRGB">
<feFlood flood-opacity="0" result="BackgroundImageFix"/>
<feBlend mode="normal" in="SourceGraphic" in2="BackgroundImageFix" result="shape"/>
<feGaussianBlur stdDeviation="137.45" result="effect1_foregroundBlur_95_372"/>
</filter>
</defs>
</svg>
